<?xml version="1.0" encoding="utf-8"?>
<!-- Generator: Adobe Illustrator 22.1.0, SVG Export Plug-In . SVG Version: 6.00 Build 0)  -->
<svg version="1.1" id="Слой_1" xmlns="http://www.w3.org/2000/svg" xmlns:xlink="http://www.w3.org/1999/xlink" x="0px" y="0px"
	 viewBox="0 0 500 500" style="enable-background:new 0 0 500 500;" xml:space="preserve">
<style type="text/css">
	.st0{fill:#45014A;}
	.st1{fill:#EFEFEF;}
</style>
<g>
	<g>
		<path class="st0" d="M96.3,411.7c0,47.6,38.6,86.3,86.3,86.3h0v-86.3L96.3,411.7L96.3,411.7z"/>
		<rect x="198.8" y="411.7" class="st0" width="86.3" height="86.3"/>
		<rect x="301.2" y="411.7" class="st0" width="86.3" height="86.3"/>
		<rect x="301.2" y="309.3" class="st0" width="86.3" height="86.3"/>
		<rect x="198.8" y="206.9" class="st0" width="86.3" height="86.3"/>
		<path class="st0" d="M301.2,206.9L301.2,206.9l0,86.3h86.3v0C387.5,245.5,348.9,206.9,301.2,206.9z"/>
		<rect x="96.3" y="309.3" class="st0" width="86.3" height="86.3"/>
		<rect x="96.3" y="206.9" class="st0" width="86.3" height="86.3"/>
		<rect x="96.3" y="104.4" class="st0" width="86.3" height="86.3"/>
		<path class="st0" d="M96.3,2L96.3,2l0,86.3h86.3v0C182.6,40.6,144,2,96.3,2z"/>
	</g>
	<g>
		<path class="st1" d="M112.5,411.7c0,47.6,38.6,86.3,86.3,86.3h0v-86.3L112.5,411.7L112.5,411.7z"/>
		<rect x="215" y="411.7" class="st1" width="86.3" height="86.3"/>
		<rect x="317.4" y="411.7" class="st1" width="86.3" height="86.3"/>
		<rect x="317.4" y="309.3" class="st1" width="86.3" height="86.3"/>
		<rect x="215" y="206.9" class="st1" width="86.3" height="86.3"/>
		<path class="st1" d="M317.4,206.9L317.4,206.9l0,86.3h86.3v0C403.7,245.5,365,206.9,317.4,206.9z"/>
		<rect x="112.5" y="309.3" class="st1" width="86.3" height="86.3"/>
		<rect x="112.5" y="206.9" class="st1" width="86.3" height="86.3"/>
		<rect x="112.5" y="104.4" class="st1" width="86.3" height="86.3"/>
		<path class="st1" d="M112.5,2L112.5,2l0,86.3h86.3v0C198.8,40.6,160.2,2,112.5,2z"/>
	</g>
</g>
</svg>
