<svg width="16" height="16" xmlns="http://www.w3.org/2000/svg">

 <g>
  <title>background</title>
  <rect fill="none" id="canvas_background" height="402" width="582" y="-1" x="-1"/>
 </g>
 <g>
  <title>Layer 1</title>
  <g id="svg_1">
   <path id="svg_2" fill="#030104" d="m8,0c-4.418,0 -8,3.582 -8,8s3.582,8 8,8s8,-3.582 8,-8s-3.582,-8 -8,-8zm0,15c-3.866,0 -7,-3.134 -7,-7s3.134,-7 7,-7s7,3.134 7,7s-3.134,7 -7,7z"/>
  </g>
  <g id="svg_3"/>
  <g id="svg_4"/>
  <g id="svg_5"/>
  <g id="svg_6"/>
  <g id="svg_7"/>
  <g id="svg_8"/>
  <g id="svg_9"/>
  <g id="svg_10"/>
  <g id="svg_11"/>
  <g id="svg_12"/>
  <g id="svg_13"/>
  <g id="svg_14"/>
  <g id="svg_15"/>
  <g id="svg_16"/>
  <g id="svg_17"/>
  <path d="m6.651322,2.041977c0,0 0.090264,-0.091124 0.328946,-0.263156c0.075478,-0.054401 0.11141,-0.161762 0.197367,-0.197367c0.303906,-0.125882 0.63064,0.09304 0.72368,0c0.04652,-0.04652 0.197367,-0.065789 0.328946,-0.065789c0.065789,0 0.131578,0 0.263156,0c0.065789,0 0.122913,0.018986 0.394734,0.131578c0.192207,0.079615 0.484999,0.091124 0.72368,0.263156c0.150955,0.108803 0.268164,0.106402 0.328945,0.131578c0.085958,0.035605 0.031202,0.141404 0.065789,0.197367c0.154679,0.250276 0.496128,0.242988 0.460524,0.328945c-0.025176,0.060781 -0.348266,-0.031137 -0.72368,-0.263156c-0.279818,-0.172937 -0.313829,-0.199127 -0.328945,-0.263156c-0.033799,-0.143174 -0.065789,-0.197367 -0.065789,-0.263156c0,-0.131578 0.145731,-0.173631 0.592102,0c0.411305,0.159991 0.580505,0.360936 0.72368,0.394734c0.06403,0.015115 0.20171,0.12353 0.328945,0.197367c0.205162,0.11906 0.349341,0.153782 0.526313,0.263156c0.079144,0.048914 0.209605,0.111352 0.328945,0.197367c0.150956,0.108803 0.325001,0.222061 0.526313,0.592102c0.099421,0.18275 0.214429,0.313854 0.328945,0.460524c0.23608,0.302366 0.263157,0.394735 0.394734,0.526313c0.065789,0.065789 0.095974,0.177199 0.131578,0.263156c0.050353,0.121562 0.131579,0.328945 0.197368,0.460523c0.065789,0.131578 0.082664,0.184012 0.131577,0.263156c0.109375,0.176972 0.145513,0.288458 0.197368,0.328946c0.213805,0.166934 0.08997,0.401486 0.131578,0.526312c0.104021,0.312065 0.263156,0.394734 0.263156,0.592102c0,0.131578 0.065789,0.263156 0.065789,0.460524c0,0.131578 0,0.263156 0,0.328946c0,0.065789 0.010553,0.002416 0.065789,-0.263156c0.081488,-0.391795 0.065788,-0.789469 0.065788,-1.184204c0,-0.131578 -0.079608,-0.253337 -0.263156,-0.526312c-0.214051,-0.31834 -0.265492,-0.625276 -0.460524,-0.921047c-0.102435,-0.155347 -0.11141,-0.29876 -0.197367,-0.263156c-0.060781,0.025176 0.069371,0.261745 0.197367,0.592102c0.406151,1.048273 0.657394,1.501015 0.72368,2.039461c0.048229,0.391777 0.032812,0.654386 0.065789,1.118414c0.009328,0.131248 0.122929,0.411445 0,0.855258c-0.102399,0.369694 -0.290517,0.444805 -0.394734,0.657891c-0.091404,0.186888 -0.051963,0.268316 -0.131577,0.460524c-0.056295,0.13591 -0.087993,0.41513 -0.197368,0.592101c-0.048914,0.079144 -0.172192,0.333954 -0.197368,0.394734c-0.035604,0.085958 -0.093423,0.117355 -0.263156,0.328946c-0.092051,0.114751 -0.242988,0.35913 -0.328945,0.394734c-0.182343,0.075529 -0.460524,0.263156 -0.592102,0.394734c-0.131577,0.131577 -0.28445,0.231588 -0.394734,0.328945c-0.355656,0.313967 -0.433272,0.630639 -0.526313,0.72368c-0.04652,0.04652 -0.127245,0.206861 -0.263156,0.263157c-0.192206,0.079615 -0.430339,0.177198 -0.394734,0.263156c0.050353,0.121563 0.460524,0 0.72368,0c0.197368,0 0.394734,-0.065789 0.460524,-0.065789c0.065789,0 0.117753,-0.07095 0.197368,-0.263156c0.056296,-0.135911 0.085058,-0.216638 0.131577,-0.263157c0.046519,-0.046519 -0.064815,-0.062792 -0.263156,0c-0.654826,0.207308 -1.114851,0.470299 -1.644727,0.657891c-0.392231,0.138862 -0.945193,0.043298 -1.249992,0.394734c-0.043105,0.049701 -0.123589,0.098253 -0.328945,0.131578c-0.064939,0.010538 -0.263157,0 -0.394734,0c-0.131578,0 -0.197368,0 -0.263157,0c-0.197367,0 -0.333193,0.052691 -0.657891,0c-0.205357,-0.033325 -0.397283,-0.099963 -0.592102,-0.131578c-0.205357,-0.033325 -0.464866,-0.189319 -0.592102,-0.263156c-0.205162,-0.11906 -0.263156,-0.131578 -0.526312,-0.263157c-0.131578,-0.065789 -0.869184,-0.375927 -1.052625,-0.526313c-0.071951,-0.058986 -0.23494,-0.176279 -0.526313,-0.328945c-0.18428,-0.096555 -0.328945,-0.131577 -0.394734,-0.197367c-0.131578,-0.131578 -0.16278,-0.141404 -0.197367,-0.197368c-0.07734,-0.125138 -0.406285,-0.203807 -0.328945,-0.328945c0.034587,-0.055964 0.459113,0.069371 0.789469,0.197367c0.524137,0.203075 1.379928,0.361822 2.368406,0.394735c0.789032,0.026272 1.249992,0 1.710516,0c0.394734,0 1.132709,0.020301 2.631563,-0.197368c0.53688,-0.077968 0.913057,-0.229832 1.118414,-0.263156c0.389637,-0.063229 0.526313,0 0.592102,0c0.131577,0 0.197367,0 0.328945,0c0.131578,0 -0.02658,-0.038713 -0.328945,0.197367c-0.293338,0.229032 -0.308777,0.293341 -0.394734,0.328945c-0.303906,0.125881 -1.110251,0.262932 -1.907884,0.328946c-1.049038,0.086822 -2.039461,0 -2.697352,0c-0.460523,0 -0.72368,0 -0.855258,0c-0.065789,0 -0.11141,-0.030185 -0.197368,-0.065789c-0.243124,-0.100705 -0.866362,-0.011444 -1.315781,-0.131578c-0.342268,-0.091492 -0.457256,-0.204353 -0.592102,-0.263156c-0.515244,-0.224683 -1.351712,-0.308886 -1.907883,-0.592102c-0.504317,-0.25681 -0.75318,-0.579316 -0.855258,-0.855258c-0.094111,-0.254406 -0.194418,-0.365074 -0.263156,-0.592102c-0.019064,-0.062965 -0.098253,-0.189377 -0.131578,-0.394734c-0.031615,-0.194818 0,-0.328945 0,-0.460523c0,-0.131578 0,-0.328946 0,-0.460524c0,-0.197368 0.03023,-0.266677 0,-0.394734c-0.067597,-0.286347 -0.131578,-0.460524 -0.131578,-0.657891c0,-0.263156 0,-0.460524 0,-0.657891c0,-0.394734 0,-0.657891 0,-0.986836c0,-0.197367 -0.021077,-0.330644 0,-0.460524c0.033325,-0.205357 0.131578,-0.328945 0.263156,-0.592102c0.131578,-0.263156 0.117753,-0.399895 0.197367,-0.592102c0.056296,-0.135911 0.182252,-0.396494 0.197367,-0.460524c0.033799,-0.143173 0.20417,-0.256994 0.263156,-0.328945c0.150386,-0.183442 0.244349,-0.342871 0.394735,-0.526313c0.058986,-0.071952 0.328945,-0.394734 0.394734,-0.460524c0.263156,-0.263156 0.263156,-0.328945 0.328945,-0.394734c0.197367,-0.197367 0.255107,-0.267498 0.328945,-0.394734c0.11906,-0.205162 0.265778,-0.323944 0.394734,-0.394734c0.336277,-0.184598 0.463922,-0.286792 0.72368,-0.328945c0.410714,-0.06665 0.667247,-0.221115 1.052625,-0.328945c0.341181,-0.095464 0.592102,-0.197367 0.855258,-0.197367c0.263156,0 0.526312,0 0.72368,0c0.065789,0 0.197367,0 0.197367,0.131578c0,0.131578 -0.016215,0.435416 -1.249992,1.249992c-1.934092,1.276944 -3.521411,2.769891 -4.473657,4.210501c-0.567836,0.859053 -0.587898,1.338922 -0.526312,1.315782c1.309322,-0.491959 2.465533,-2.005044 3.55261,-3.026298c0.13562,-0.127408 0.212482,-0.195607 0.197367,-0.131578c-0.168993,0.715868 -1.705232,-2.722116 -1.44736,-2.82893c0.182343,-0.075529 0.620577,-0.022955 0.986836,0.460523c0.429706,0.567233 0.460524,0.921047 0.460524,1.184203c0,0.263156 0,0.197367 0,0c0,-0.065789 0.200589,-0.218432 0.592102,0.263156c0.840316,1.03365 1.046482,3.31099 -0.460524,4.27629c-1.129914,0.723758 -2.658998,0.371759 -2.82893,0.131578c-0.30635,-0.432993 0.024879,-1.355898 0.789469,-1.44736c1.183056,-0.14152 2.091303,0.82425 1.776305,2.17104c-0.154259,0.659541 -1.027349,1.322462 -1.381571,1.315782c-0.647832,-0.012218 -1.021526,-1.203563 -0.855258,-1.907884c0.168993,-0.715867 0.929542,-0.96064 1.578938,-0.855258c0.410714,0.066649 1.117893,1.096542 0.789469,2.302618c-0.340923,1.251975 -1.475115,2.031451 -1.776305,1.776305c-0.916034,-0.775997 -0.284387,-2.875195 0.131578,-3.55261c0.22043,-0.35898 0.340983,-0.515504 0.460523,-0.460523c1.102108,0.506898 0.986836,1.776305 0.986836,2.236828c0,0.197368 -0.093195,0.347424 -0.263156,0.065789c-0.860616,-1.426085 -0.493962,-4.282714 -0.065789,-4.736814c0.243051,-0.257768 0.987864,-0.305746 1.38157,0.131578c1.128261,1.253258 0.789469,3.486821 0.789469,4.671024c0,0.328945 -0.492398,0.465825 -1.184203,-0.526313c-1.077538,-1.545328 -0.921047,-2.681154 -0.921047,-3.223665c0,-0.542511 0.238559,-0.733463 0.460524,-0.592102c0.918542,0.584985 0.903018,2.716641 0.657891,3.815766c-0.045286,0.203055 -0.238212,0.277063 -0.460524,-0.131578c-0.900293,-1.654871 -0.390805,-3.180271 -0.328945,-3.157875c0.483139,0.17492 1.124966,2.182825 0.855258,5.263125c-0.099061,1.131368 -0.254321,1.409185 -0.460524,1.381571c-0.940428,-0.12594 -0.921047,-0.762218 -0.921047,-0.855258c0,-0.09304 0.754786,-0.26113 1.513149,-0.394734c0.323956,-0.057073 0.72368,-0.065789 2.039461,-0.065789c1.973672,0 2.983284,0.019377 3.092086,-0.131578c0.086016,-0.119341 0.131578,-0.460523 0.263157,-0.592101c0.197367,-0.197368 0.559267,-0.301841 0.986835,-0.855258c0.269819,-0.349237 0.197368,-0.855258 0.197368,-1.44736c0,-0.986836 0,-1.38157 -0.131578,-1.842094c-0.131577,-0.460523 -0.147191,-0.25984 0,0.394735c0.41657,1.852528 0.657891,3.48682 0.657891,4.078922c0,0.131578 0.067859,0.421844 -0.065789,0.657891c-0.229203,0.404817 -0.531321,0.551488 -0.592102,0.526312c-0.085958,-0.035604 -0.076663,-0.595999 0.328945,-1.710516c0.384464,-1.056419 0.526313,-1.513148 0.526313,-1.776304c0,-0.065789 0.057321,-0.33313 0,-0.72368c-0.099741,-0.679577 -0.48079,-1.495089 -0.72368,-1.907883c-0.141549,-0.240565 -0.312261,-0.471128 -0.526313,-0.789469c-0.183548,-0.272974 -0.421946,-0.567452 -0.65789,-0.855258c-0.300772,-0.366883 -0.548836,-0.694957 -0.72368,-0.855258c-0.310507,-0.284678 -0.288491,-0.419209 -0.460524,-0.657891c-0.108802,-0.150955 -0.163568,-0.251561 -0.197367,-0.394734c-0.015115,-0.064029 0,-0.131578 0.197367,-0.131578c0.657891,0 1.533241,0.286951 1.842094,0.460524c0.286763,0.161159 0.539222,0.587954 0.72368,1.184203c0.141551,0.457557 0.197368,0.789469 0.197368,1.052625c0,0.197367 -0.200704,0.470202 -1.052626,0.394734c-1.863934,-0.165117 -3.187343,-1.082406 -4.078922,-1.842094c-0.885937,-0.75488 -1.614542,-1.49298 -1.578938,-1.578938c0.050353,-0.121562 0.678398,-0.026954 2.960508,0.526313c1.396404,0.338539 1.86078,0.660949 1.776305,1.118414c-0.245994,1.332158 -1.142473,1.904953 -1.776305,2.039461c-0.965339,0.204859 -1.86675,-0.250527 -2.039462,-0.789469c-0.160619,-0.501205 -0.09685,-1.234462 0.197367,-1.381571c0.647279,-0.323639 1.59692,0.57301 1.842094,1.842094c0.301828,1.562337 -0.022492,4.031735 -1.578938,4.802602c-0.530591,0.262788 -1.578746,-1.505606 -1.644727,-2.368406c-0.100329,-1.311952 0.716249,-2.155333 0.921047,-2.89472c0.017561,-0.063402 0.739356,-0.274068 1.513149,1.052625c1.00645,1.72559 1.538875,3.745934 1.052625,3.947345c-0.085958,0.035604 -0.308198,-0.151136 -0.921047,-1.776305c-0.727063,-1.928042 -0.72368,-3.881556 -0.72368,-4.802603c0,-0.394734 0.034163,-0.48959 0.197367,-0.263156c0.688128,0.954727 0.951719,2.308533 0.855258,3.092087c-0.066286,0.538445 -0.448735,0.714628 -0.855258,0.197367c-0.928797,-1.181803 -0.72368,-2.565774 -0.72368,-3.157876c0,-0.394734 0.011388,-0.536001 0.065789,-0.460524c0.086016,0.119341 0.308619,0.998315 0.526313,2.302618c0.189149,1.13328 0,2.499985 0.263156,2.499985c0.131578,0 -0.329961,-0.410909 -0.986836,-2.368406c-0.497495,-1.482543 -0.592102,-2.236829 -0.592102,-2.434196c0,-0.131578 0.007127,-0.066519 0.131578,1.184204c0.209364,2.104091 0.138744,3.367114 0.263156,4.013133c0.133996,0.695786 0.70809,1.275029 1.118414,1.513149c0.254471,0.147676 0.554207,0.523894 1.249993,0.65789c0.452213,0.087089 0.664642,0.183864 0.789469,-0.065789c0.208043,-0.416087 0.175288,-1.053662 0.131577,-1.973672c-0.065863,-1.386259 -0.098768,-2.566456 -0.131577,-3.355243c-0.032923,-0.791521 -0.290713,-1.277549 -0.394734,-1.381571c-0.104022,-0.104022 -0.771311,-0.709026 -0.986836,-0.460523c-0.243839,0.281149 1.202062,0.952749 1.776305,1.973672c0.275567,0.48992 0.394633,1.244528 0.460524,2.434196c0.076402,1.379457 0.013556,2.242581 -0.131578,2.565774c-0.120528,0.268396 -0.145397,0.384916 -0.328945,0.65789c-0.214052,0.31834 -0.328946,0.460524 -0.592102,0.460524c-0.592101,0 -1.184203,-0.131578 -1.381571,-0.131578c-0.065788,0 -0.396608,-0.282916 -0.263156,-0.72368c0.206216,-0.681083 1.735993,-0.753993 2.565774,-1.315782c0.308172,-0.208643 0.378637,-0.666574 0.526313,-0.921047c0.11906,-0.205161 0.230149,-0.522231 0.263156,-0.921047c0.037984,-0.458954 0,-0.72368 0,-0.789469c0,-0.065789 0.053607,0.198578 0.131578,0.921047c0.113826,1.054693 0.189542,1.658897 0.065789,2.039461c-0.090985,0.279797 -0.197368,0.460524 -0.197368,0.657891l0,0.197367l0,0.263157l0,0.065789" id="svg_19" stroke-width="1.5" stroke="#000" fill="none"/>
  <path d="m11.124979,4.147227c0,-0.065789 0.185772,-0.295147 0.328945,-0.328945c0.06403,-0.015115 0.466519,-0.052347 0.921047,-0.263156c0.266908,-0.123791 0.441577,-0.196158 0.789469,-0.263156c0.129205,-0.024883 0.282808,-0.069174 0.394734,0c0.125138,0.07734 0.065789,0.197367 0.065789,0.394734c0,0.131578 0,0.263156 -0.197367,0.263156c-0.657891,0 -1.185805,0.032413 -1.513149,0c-0.333827,-0.033055 -0.94325,-0.637495 -1.052625,-0.460524c-0.048914,0.079144 0.204169,0.059627 0.263156,0.131578c0.150386,0.183441 0.328945,0.657891 0.394734,1.118414l0.131578,0.657891l0.328945,0.526313" id="svg_20" stroke-width="1.5" stroke="#000" fill="none"/>
  <path d="m4.414494,12.041916c-0.197367,0.263157 -0.263156,0.328946 -0.263156,0.394734c0,0.065789 -0.020102,0.597539 0.131578,1.118415c0.116333,0.399493 0.112018,0.561928 0.328946,0.65789c0.248067,0.109737 0.394734,0.131578 0.657891,0.131578c0.131578,0 0.263156,0.065789 0.592102,0.065789c0.197367,0 0.328095,0.010538 0.263156,0c-0.205357,-0.033325 -0.817967,-0.260913 -1.513149,-0.592102c-0.34632,-0.164989 -0.768244,-0.482957 -1.184203,-0.855258c-0.313889,-0.280944 -0.460524,-0.394734 -0.526313,-0.460524l-0.065789,-0.197367l0,-0.065789l0,-0.065789" id="svg_21" stroke-width="1.5" stroke="#000" fill="none"/>
 </g>
</svg>